<?xml version="1.0" encoding="utf-8"?>
<!-- Generator: Adobe Illustrator 15.0.0, SVG Export Plug-In . SVG Version: 6.00 Build 0)  -->
<!DOCTYPE svg PUBLIC "-//W3C//DTD SVG 1.1//EN" "http://www.w3.org/Graphics/SVG/1.1/DTD/svg11.dtd">
<svg version="1.1" id="Layer_1" xmlns="http://www.w3.org/2000/svg" xmlns:xlink="http://www.w3.org/1999/xlink" x="0px" y="0px"
	 width="200px" height="200px" viewBox="0 0 200 200" enable-background="new 0 0 200 200" xml:space="preserve">
<g>
	<path fill-rule="evenodd" clip-rule="evenodd" fill="#ffffff" d="M11.111,0h177.777C195.024,0,200,4.975,200,11.111v11.112
		c0,6.135-4.976,11.111-11.112,11.111H11.111C4.974,33.333,0,28.358,0,22.223V11.111C0,4.975,4.974,0,11.111,0z"/>
	<path fill-rule="evenodd" clip-rule="evenodd" fill="#ffffff" d="M11.111,83.333h177.777c6.137,0,11.112,4.976,11.112,11.111v11.112
		c0,6.135-4.976,11.11-11.112,11.11H11.111C4.974,116.666,0,111.69,0,105.556V94.444C0,88.309,4.974,83.333,11.111,83.333z"/>
	<path fill-rule="evenodd" clip-rule="evenodd" fill="#ffffff" d="M11.111,166.667h177.777c6.137,0,11.112,4.976,11.112,11.11v11.11
		c0,6.137-4.976,11.112-11.112,11.112H11.111C4.974,200,0,195.024,0,188.888v-11.11C0,171.643,4.974,166.667,11.111,166.667z"/>
</g>
</svg>
