<?xml version="1.0" ?><!DOCTYPE svg  PUBLIC '-//W3C//DTD SVG 1.1//EN'  'http://www.w3.org/Graphics/SVG/1.1/DTD/svg11.dtd'><svg enable-background="new 0 0 512 512" id="Layer_1" version="1.1" viewBox="0 0 512 512" xml:space="preserve" xmlns="http://www.w3.org/2000/svg" xmlns:xlink="http://www.w3.org/1999/xlink"><path d="M449.7,335h-390c-6.6,0-12-5.4-12-12V107  c0-6.6,5.4-12,12-12h390c6.6,0,12,5.4,12,12v216C461.7,329.6,456.3,335,449.7,335z" fill="#FFFFFF" stroke="#231F20" stroke-miterlimit="10" stroke-width="5"/><rect fill="#FFCCCC" height="196" stroke="#231F20" stroke-miterlimit="10" stroke-width="3" width="376" x="66.7" y="120"/><g><ellipse cx="254.7" cy="107.5" fill="#E3F0E6" rx="8.5" ry="8.4" stroke="#231F20" stroke-miterlimit="10" stroke-width="3"/><ellipse cx="254.7" cy="107.5" fill="#FFFFFF" rx="3.3" ry="2.8" stroke="#231F20" stroke-miterlimit="10" stroke-width="3"/></g><path d="M475.5,366.7h-439c-6.6,0-12-5.4-12-12v-5  c0-6.6,5.4-12,12-12h439c6.6,0,12,5.4,12,12v5C487.5,361.3,482.1,366.7,475.5,366.7z" fill="#EBEBEB" stroke="#231F20" stroke-miterlimit="10" stroke-width="5"/><ellipse cx="107" cy="352.2" fill="#231F20" rx="6.8" ry="6" stroke="#231F20" stroke-miterlimit="10"/><ellipse cx="76.4" cy="352.2" fill="#231F20" rx="6.8" ry="6" stroke="#231F20" stroke-miterlimit="10"/><ellipse cx="135" cy="352.2" fill="#231F20" rx="6.8" ry="6" stroke="#231F20" stroke-miterlimit="10"/><circle cx="89.2" cy="206.5" fill="#7472B2" r="11.5" stroke="#231F20" stroke-miterlimit="10" stroke-width="0.25"/><circle cx="89.2" cy="173" fill="#A3FFBA" r="11.5" stroke="#231F20" stroke-miterlimit="10" stroke-width="0.25"/><circle cx="89.2" cy="138.5" fill="#B22020" r="11.5" stroke="#231F20" stroke-miterlimit="10" stroke-width="0.25"/><circle cx="89.2" cy="240.5" fill="#7472B2" r="11.5" stroke="#231F20" stroke-miterlimit="10" stroke-width="0.25"/><circle cx="126.7" cy="138.5" fill="#7AFF9C" r="11.5" stroke="#231F20" stroke-miterlimit="10" stroke-width="0.25"/><circle cx="89.2" cy="273.8" fill="#FF6666" r="11.5" stroke="#231F20" stroke-miterlimit="10" stroke-width="0.25"/><circle cx="124.8" cy="206.5" fill="#B22020" r="11.5" stroke="#231F20" stroke-miterlimit="10" stroke-width="0.25"/><circle cx="124.8" cy="173" fill="#29FF5E" r="11.5" stroke="#231F20" stroke-miterlimit="10" stroke-width="0.25"/><rect fill="#FF9999" height="11.7" stroke="#231F20" stroke-miterlimit="10" stroke-width="0.25" width="373.3" x="68" y="304.3"/><rect fill="#B26060" height="11.7" stroke="#231F20" stroke-miterlimit="10" stroke-width="0.25" width="22" x="70.8" y="304.3"/><rect fill="#B2B0A1" height="11.3" stroke="#231F20" stroke-miterlimit="10" stroke-width="3" width="90" x="213.7" y="337.7"/><line fill="none" stroke="#231F20" stroke-miterlimit="10" stroke-width="3" x1="258.7" x2="258.7" y1="337.7" y2="349"/></svg>