<svg xmlns="http://www.w3.org/2000/svg" width="898" height="901" viewBox="0 0 898 901"><path d="M5.737 893.082l-4.748-4.748 84.176-84.18 84.176-84.18-3.736-6.827c-44.663-81.628-67.83-185.947-63.588-286.328 5.026-118.893 41.152-223.024 105.643-304.5 11.597-14.651 43.055-45.878 57.23-56.808 68.925-53.148 145.764-70.897 223.347-51.59 77.905 19.387 151.259 80.606 198.781 165.898 2.912 5.225 5.949 10.574 6.75 11.886 1.439 2.357 2.61 1.232 97.614-93.768L887.54 1.783l4.714 4.786 4.714 4.786-97.484 97.48C745.868 162.45 702 206.7 702 207.17c0 .47 2.451 6.322 5.447 13.002 50.308 112.176 60.885 251.95 28.496 376.579-38.581 148.454-134.229 259.651-247.706 287.975-24.763 6.18-47.444 8.304-74.487 6.974-62.64-3.082-124.168-31.921-175.597-82.305-21.451-21.015-38.233-41.365-53.872-65.326-4.039-6.187-7.665-11.25-8.06-11.25-.394 0-37.846 37.128-83.226 82.506l-82.51 82.505zm449.922-22.805c45.3-5.938 88.442-25.053 127.344-56.422 45.325-36.549 85.907-93.514 111.597-156.65 26.477-65.07 39.392-133.226 39.392-207.886 0-64.927-9.216-122.022-29.062-180.041-5.504-16.09-16.893-44.755-18.369-46.23C685.711 222.196 192 715.93 192 717.631c0 1.674 15.151 24.859 23.227 35.543 16.76 22.171 39.05 45.584 57.77 60.68 38.479 31.027 81.758 50.323 126.503 56.4 13.94 1.893 41.803 1.904 56.16.022zm-22.817-413.802L680.18 209.131l-4.77-8.906c-24.86-46.427-57.708-87.463-92.406-115.442-31.827-25.663-71.458-45.408-106.043-52.832-31.921-6.853-65.999-6.853-97.92 0-25.42 5.456-59.441 20.205-83.043 36-57.09 38.208-104.166 98.897-134.606 173.533-26.4 64.73-39.383 133.247-39.383 207.835 0 74.805 12.922 142.834 39.574 208.335 7.045 17.315 21.283 46.165 22.783 46.165.628 0 112.442-111.305 248.477-247.344z"/></svg>