<?xml version="1.0" ?><svg style="enable-background:new 0 0 48 48;" version="1.1" viewBox="0 0 48 48" xml:space="preserve" xmlns="http://www.w3.org/2000/svg" xmlns:xlink="http://www.w3.org/1999/xlink"><g id="Padding__x26__Artboard"/><g id="Icons"><g><path d="M24.43812,29.2607c0.291-0.71871,0.01761-1.33391,0.01465-1.34033    c-0.17694-0.38354-0.6087-0.45295-0.98809-0.45298c-0.50414-0.00004-0.97683,0.1508-1.39333,0.42524    c-0.38796,0.25563-0.83564,0.44278-1.27839,0.57844c-0.58099,0.17803-1.18872,0.25924-1.79576,0.25935    c-0.10107,0-0.20312-0.00195-0.30615-0.00635c-0.06299-0.00391-1.41992-0.08838-2.27881-0.39453    c-0.39136-0.13727-1.10162-0.23035-1.79419-0.2262c0.03687,0.0553,0.06232,0.11426,0.07056,0.18079    c0.0235,0.18994,0.06158,0.5506-1.81519,1.14465c0.56744,0.59747,2.12885,1.83575,5.38843,1.92224    c0.04083,0.00092,2.11066,0.12976,4.30237-0.53033C23.54432,30.42775,24.17732,29.90425,24.43812,29.2607z M18.44093,30.18996    c0,0,4.13159-0.76031,4.22211-1.55969C22.66304,28.63026,25.03456,30.60219,18.44093,30.18996z" style="fill:#303030;"/><path d="M25.26039,15.09566l0.14258-4.48291l-3.71533,3.26465    C22.44984,14.04536,24.18812,14.47359,25.26039,15.09566z" style="fill:#303030;"/><path d="M12.41957,27.71968c0.24359,0,0.45856,0.00385,0.65363,0.01068    c1.02777-0.37854,2.75586-0.24115,3.53876,0.03326c0.78125,0.27832,2.09619,0.36035,2.10938,0.36133    c2.77246,0.11084,4.71582-1.41211,5.60156-4.4126c0.91504-3.12402-0.99951-3.96045-1.08105-3.99414    c-1.00879-0.46875-1.94775-0.51953-2.80322-0.15625c-1.94141,0.82373-2.88623,3.50195-2.89551,3.52881    c0,0-0.91504,2.3418-0.91504,2.3418c-0.11834,0.32571-0.27858,0.63911-0.49649,0.90985    c-0.16814,0.20889-0.37048,0.39012-0.60145,0.52702c-0.18945,0.11229-0.39631,0.19394-0.6108,0.24352    c-0.42896,0.09915-0.88888,0.08652-1.31261-0.03218c-0.06362-0.01782-0.12884-0.03819-0.18811-0.06782    c-0.19548-0.08599-0.3711-0.21222-0.52732-0.35687c-0.17641-0.16333-0.32974-0.35059-0.46738-0.54728    c-0.15348-0.21932-0.28801-0.45161-0.41032-0.68957c-0.13123-0.25531-0.24839-0.51772-0.35613-0.78374    c-0.11064-0.27316-0.21126-0.55033-0.30482-0.82978c-0.0917-0.27392-0.17654-0.5501-0.25637-0.8277    c-0.07422-0.25808-0.14405-0.5174-0.21081-0.7775c-0.05798-0.22591-0.11356-0.45242-0.16812-0.67918    c-0.01581-0.06571-0.03175-0.13139-0.04727-0.19716c0,0-0.06885-0.28613-0.06885-0.28613    c-0.02539-0.10693-0.0498-0.18604-0.0708-0.24463c-0.10829,0.21831-0.26088,1.1955-0.2811,1.74209    c-0.00048,0.01287-0.00093,0.02573-0.00137,0.0386c-0.00633,0.18495-0.00321,0.36928-0.00321,0.55424    c0.00922,0.39766,0.04266,0.79499,0.10482,1.18794c0.06795,0.42959,0.17041,0.85423,0.31454,1.26478    c0.15225,0.43366,0.35149,0.85132,0.60191,1.23704c0.10294,0.15856,0.21438,0.3116,0.33401,0.45799    c0.06196,0.07582,0.12611,0.14986,0.19236,0.22197c0.03357,0.03654,0.06768,0.07258,0.10231,0.10812    c0.01691,0.01735,0.07845,0.09999,0.10107,0.10081C12.19911,27.71437,12.36396,27.71968,12.41957,27.71968z M21.0309,20.26949    c0.05566-0.00977,1.35693-0.24121,2.18848,0.45068c0.43604,0.36279,0.65674,0.89795,0.65674,1.59082    c0,0.16553-0.13428,0.2998-0.2998,0.2998s-0.2998-0.13428-0.2998-0.2998c0-0.51318-0.14453-0.88281-0.44092-1.12939    c-0.60986-0.50684-1.68604-0.3252-1.69531-0.32227c-0.16748,0.03076-0.31982-0.07715-0.34961-0.24023    C20.76039,20.45601,20.8683,20.29976,21.0309,20.26949z" style="fill:#303030;"/><path d="M9.68812,28.28511c-0.0473,0.0242-0.13314,0.06746-0.11426,0.22803    c0.01888,0.16057,0.42041,0.78857,1.79883,0.72119c1.37984-0.12059,2.02148-0.5918,2.50732-0.83594    C13.6432,28.35884,10.16237,28.04242,9.68812,28.28511z" style="fill:#303030;"/><path d="M8.10853,9.01704C7.86976,8.8647,7.56703,8.8564,7.31996,8.99409    C7.07191,9.13277,6.92054,9.39644,6.92543,9.68208c0.02826,1.78094,0.34723,5.15186,2.09052,7.96558    c0.15717-0.28192,0.43079-0.45715,0.43079-0.45715c0.09192-0.05237,0.18829-0.09326,0.29315-0.11243    c0.10803-0.02051,0.21619-0.02039,0.32294-0.00507c0.85602-1.63355,1.97668-2.9624,3.20764-4.05512l0.46423-0.41534    L8.10853,9.01704z" style="fill:#303030;"/><path d="M16.36146,12.45698l-0.98047,0.69189c-0.13525,0.0957-0.16797,0.28271-0.07227,0.41797    c0.05859,0.08301,0.15137,0.12695,0.24561,0.12695c0.05957,0,0.12012-0.01758,0.17236-0.05469l0.98047-0.69189    c0.13525-0.0957,0.16797-0.28271,0.07227-0.41797C16.68373,12.39351,16.49574,12.36128,16.36146,12.45698z" style="fill:none;"/><path d="M16.36146,12.45698l-0.98047,0.69189c-0.13525,0.0957-0.16797,0.28271-0.07227,0.41797    c0.05859,0.08301,0.15137,0.12695,0.24561,0.12695c0.05957,0,0.12012-0.01758,0.17236-0.05469l0.98047-0.69189    c0.13525-0.0957,0.16797-0.28271,0.07227-0.41797C16.68373,12.39351,16.49574,12.36128,16.36146,12.45698z" style="fill:none;"/><path d="M29.79017,14.73042c0.11658,0.01544,1.53632,0.21722,3.34705,0.98303l0.58594,0.26483    c1.69928-1.55774,6.11267-2.87695,7.27319-3.20483c0.02069-0.0058,0.05978-0.01258,0.07834-0.01777    c-0.22687-0.27582-0.48862-0.49059-0.48862-0.49059C35.97798,8.45692,29.44355,8.3091,28.08802,8.3224l-0.46436,7.76984    c-0.00928,0.15918-0.1416,0.28174-0.31738,0.28125c-0.16504-0.00977-0.2915-0.15186-0.28125-0.31738    c0.00298-0.04986,0.00597-0.09972,0.00895-0.14958c0.00826-0.13804,0.01652-0.27608,0.02478-0.41412    c0.01252-0.20921,0.02504-0.41841,0.03755-0.62762c0.01576-0.26336,0.03152-0.52672,0.04727-0.79008    c0.01798-0.3005,0.03596-0.601,0.05394-0.9015c0.01918-0.32062,0.03837-0.64125,0.05755-0.96187    c0.01937-0.32374,0.03874-0.64747,0.05811-0.97121c0.01854-0.30983,0.03708-0.61967,0.05561-0.9295    c0.01669-0.27892,0.03338-0.55783,0.05007-0.83675c0.01876-0.30019,0.03513-0.60054,0.05364-0.90075    c0.0182-0.2952,0.04655-0.59087,0.03676-0.88694c-0.00257-0.07782-0.00824-0.15556-0.0182-0.2328    c-0.01129-0.08755-0.0252-0.17408-0.05572-0.25725c-0.0246-0.06702-0.06798-0.17104-0.13169-0.21086    c-0.06026-0.05786-0.13605-0.10033-0.21869-0.11518c-0.09169-0.01648-0.18589,0.00551-0.2725,0.03553    c-0.22912,0.07942-0.43298,0.20577-0.63274,0.3404c-0.02921,0.01969-0.05853,0.0392-0.08792,0.05861    c-0.41388,0.27186-0.79963,0.5835-1.17227,0.90895c-0.33344,0.29122-0.6558,0.59531-0.97445,0.90256    c-0.23748,0.22898-0.47221,0.46082-0.70496,0.69461c-0.23385,0.23488-0.46569,0.47176-0.69597,0.71014    c-0.22122,0.229-0.44099,0.4594-0.65954,0.69095c-0.19955,0.21142-0.39808,0.4238-0.59569,0.63704    c-0.16881,0.18217-0.33695,0.36497-0.5044,0.54839c-0.12899,0.14129-0.25757,0.28294-0.38568,0.42502    c-0.08006,0.08879-0.15994,0.17773-0.23954,0.26693c-0.02266,0.02539-0.04531,0.05078-0.06787,0.07626    c-0.1084,0.125-0.29883,0.13623-0.42334,0.02588c-0.12402-0.10986-0.13574-0.29932-0.02588-0.42334    c0.11664-0.13214,1.87097-2.11053,3.58606-3.79449c-2.10626,0.38696-9.323,2.14276-12.60046,8.31989    c0.18451,0.11115,0.35132,0.24585,0.49524,0.38153c0.52997-0.79938,1.97437-2.87799,3.21497-3.75848    c0.13525-0.09814,0.32275-0.06348,0.41846,0.0708c0.0957,0.13525,0.06396,0.32275-0.0708,0.41846    c-1.21545,0.86249-2.71887,3.07794-3.14319,3.72382c0.01953,0.02496,0.04108,0.05249,0.04944,0.06378    c0.09863,0.1333,0.07031,0.3208-0.0625,0.41943c-0.13281,0.09766-0.32178,0.0708-0.41943-0.06201    c-0.23779-0.31982-0.86963-0.95312-1.26221-0.88232c-0.27197,0.0498-0.43994,0.45459-0.53369,0.78516    c-0.00262,0.01099-0.39349,1.67786,0.42426,3.00042c0.05552-0.38405,0.12708-0.7742,0.36144-1.09454    c0.08563-0.11704,0.19893-0.22661,0.34099-0.26929c0.30132-0.09054,0.51921,0.17066,0.62387,0.41737    c0.05323,0.12547,0.0882,0.2572,0.12005,0.38941c0,0,0.06885,0.2876,0.06885,0.2876    c0.04272,0.17856,0.0857,0.35706,0.13013,0.53521c0.0568,0.22771,0.11578,0.45489,0.17771,0.68126    c0.07065,0.25824,0.14509,0.51546,0.22449,0.77115c0.08395,0.27031,0.17339,0.53897,0.27048,0.80486    c0.09647,0.26419,0.20041,0.5258,0.31568,0.78239c0.108,0.2404,0.22583,0.47684,0.36008,0.70374    c0.11842,0.20015,0.24976,0.39418,0.40369,0.56893c0.11985,0.13606,0.25713,0.26382,0.41473,0.35767    c0.17207,0.10247,0.36315,0.15259,0.58193,0.17125c0.21136,0.01593,0.42472,0.01804,0.6326-0.02951    c0.08255-0.01888,0.16359-0.0444,0.24203-0.07629c0.23608-0.09596,0.44354-0.25091,0.61104-0.44223    c0.20146-0.23011,0.34475-0.50618,0.44888-0.7923c0,0,0.91309-2.33691,0.91309-2.33691    c0.03711-0.1084,1.03418-2.94287,3.22168-3.87305c1.01904-0.43359,2.12207-0.38037,3.27979,0.15771    c0.01074,0.00391,2.49023,1.04834,1.41699,4.71338c-0.36664,1.2417-0.922,2.24988-1.63025,3.0271    c0.28241-0.0224,0.57825-0.01685,0.84509,0.052c0.41846,0.10938,0.7251,0.35498,0.88574,0.71143    c0.01514,0.03369,0.38184,0.8584-0.00488,1.81348c-0.04388,0.1084-0.11536,0.20581-0.17444,0.30817    c0.49512-0.32074,0.96216-0.69855,1.36633-1.16266c0.10889-0.12451,0.29736-0.13818,0.42334-0.02881    c0.12451,0.10889,0.1377,0.29834,0.02881,0.42334c-1.04126,1.19556-2.41162,1.90784-3.74371,2.3324l-1.21045,0.32538    c0.02942,0.01794,0.13763,0.02069,0.1734,0.02777c6.73877,1.32764,8.2959,9.33936,8.31104,9.4209    c0.16528-0.33496,0.41455-0.80518,0.41455-0.80518c4.72803-9.24609-0.77539-15.10303-0.83301-15.1626    c-0.11523-0.11914-0.11182-0.30908,0.00732-0.42432c0.11816-0.11523,0.30811-0.1123,0.42432,0.00732    c0.01929,0.0199,0.62213,0.66138,1.27454,1.83734c0,0,0.27173,0.52698,0.3429,0.66681    c6.16559,1.24408,8.48511,6.1864,8.50806,6.23755l-0.05908-1.28595c-0.15192-2.50684-1.00824-8.51141-5.68018-11.50995    c-0.13916-0.08936-0.17969-0.2749-0.09033-0.41455c0.08887-0.13916,0.27393-0.1792,0.41455-0.09033    c4.10175,2.63263,5.39435,7.43616,5.80151,10.46301c0.40112-4.02917-0.33673-7.39441-2.20923-10.026    c-3.21436-4.51855-8.71729-5.29297-8.77246-5.30029c-0.16455-0.02148-0.28027-0.17236-0.2583-0.33643    C29.47572,14.82368,29.6305,14.70845,29.79017,14.73042z M16.70716,12.94722l-0.98047,0.69189    c-0.05225,0.03711-0.11279,0.05469-0.17236,0.05469c-0.09424,0-0.18701-0.04395-0.24561-0.12695    c-0.0957-0.13525-0.06299-0.32227,0.07227-0.41797l0.98047-0.69189c0.13428-0.0957,0.32227-0.06348,0.41797,0.07227    C16.87513,12.6645,16.84242,12.85152,16.70716,12.94722z M25.84242,15.6645c-0.00342,0.11523-0.07324,0.21826-0.17871,0.26465    c-0.03906,0.01709-0.08008,0.02539-0.12109,0.02539c-0.07031,0-0.13965-0.02441-0.19531-0.07227    c-1.03708-0.88913-4.11506-1.48727-4.14648-1.49365c-0.14209-0.02885-0.2721-0.13539-0.30453-0.27997    c-0.03562-0.15884,0.04012-0.36723,0.16049-0.4754l3.88525-3.49463c0.18994-0.1709,0.46191-0.21143,0.69385-0.10352    c0.23096,0.10791,0.375,0.34229,0.3667,0.59717L25.84242,15.6645z" style="fill:#303030;"/></g></g></svg>