<svg id="Слой_1" xmlns="http://www.w3.org/2000/svg" viewBox="0 0 529.9 192.9"><style>.st0{fill:#7ab929}.st1{fill:#1a161b}.st2{font-family:&apos;Bicubik&apos;}.st3{font-size:65.4878px}.st4{letter-spacing:3}</style><path class="st0" d="M75.8 192.9c-21.6-4.9-42.5-9.6-63.3-14.6-1.6-.4-3.7-3.1-3.7-4.7-.1-50.3-.1-100.6 0-150.9 0-1.5 1.4-4.1 2.6-4.4C32.7 12 54.1 6.1 75.8 0v192.9zm-6.1-7.6V8.2c-2.2.5-4 .8-5.7 1.3-14.6 4.1-29.1 8.3-43.8 12.1-4.3 1.1-5.7 3-5.6 7.5.2 41 .1 82.1.1 123.1 0 5.5-.2 10.9.1 16.4.1 1.6 1.3 4.4 2.4 4.6 17.3 4.2 34.6 8.1 52.5 12.1zm39.5-173.9V179h-5.8V17.9H80.1v-6.5h29.1z"/><path class="st0" d="M0 177.8V11.4h20.8l.3.6c-3.4 1-6.8 2.4-10.3 3-4.5.7-5.8 2.9-5.7 7.4.2 29.5.1 59.1.1 88.6v62.5c0 3.7-.6 6-5.2 4.3z"/><text transform="translate(89.034 178.353)"><tspan x="0" y="0" class="st1 st2 st3 st4">КВАРТИ.</tspan><tspan x="347" y="0" class="st0 st2 st3 st4">РУ</tspan></text><text transform="translate(119.229 104.395)" class="st1 st2 st3 st4">ВАМ</text></svg>