<?xml version="1.0" ?><svg id="icons" style="enable-background:new 0 0 64 64;" version="1.1" viewBox="0 0 64 64" xml:space="preserve" xmlns="http://www.w3.org/2000/svg" xmlns:xlink="http://www.w3.org/1999/xlink"><g><rect height="2" width="4" x="42" y="6"/><path d="M41,55c0,1.654,1.346,3,3,3s3-1.346,3-3s-1.346-3-3-3S41,53.346,41,55z M45,55c0,0.551-0.448,1-1,1s-1-0.449-1-1   s0.448-1,1-1S45,54.449,45,55z"/><path d="M57,2H32c-1.654,0-3,1.346-3,3v14h2V5c0-0.551,0.448-1,1-1h25c0.552,0,1,0.449,1,1v54c0,0.551-0.448,1-1,1H32   c-0.552,0-1-0.449-1-1v-7h-2v7c0,1.654,1.346,3,3,3h25c1.654,0,3-1.346,3-3V5C60,3.346,58.654,2,57,2z"/><path d="M47,50h8c0.553,0,1-0.448,1-1V11c0-0.552-0.447-1-1-1H34c-0.553,0-1,0.448-1,1v8h2v-7h19v36h-4.184   C49.928,47.686,50,47.352,50,47V24c0-1.654-1.346-3-3-3H7c-1.654,0-3,1.346-3,3v23c0,1.654,1.346,3,3,3h27H47z M7,48   c-0.552,0-1-0.449-1-1V36h38v-2H6V24c0-0.551,0.448-1,1-1h40c0.552,0,1,0.449,1,1v4H11v2h37v17c0,0.551-0.448,1-1,1H34H7z"/><rect height="2" width="10" x="11" y="42"/><rect height="2" width="8" x="25" y="42"/><rect height="2" width="2" x="38" y="38"/><rect height="2" width="2" x="42" y="38"/></g></svg>