<?xml version="1.0" ?><svg id="icons" style="enable-background:new 0 0 64 64;" version="1.1" viewBox="0 0 64 64" xml:space="preserve" xmlns="http://www.w3.org/2000/svg" xmlns:xlink="http://www.w3.org/1999/xlink"><g><path d="M33,11v4h2v-3h19v36H33v2h22c0.553,0,1-0.447,1-1V11c0-0.553-0.447-1-1-1H34C33.447,10,33,10.447,33,11z"/><rect height="2" width="4" x="42" y="6"/><path d="M41,55c0,1.654,1.346,3,3,3s3-1.346,3-3s-1.346-3-3-3S41,53.346,41,55z M45,55c0,0.552-0.448,1-1,1s-1-0.448-1-1   s0.448-1,1-1S45,54.448,45,55z"/><path d="M57,2H32c-1.654,0-3,1.346-3,3v10h2V5c0-0.552,0.449-1,1-1h25c0.552,0,1,0.448,1,1v54c0,0.552-0.448,1-1,1H32   c-0.551,0-1-0.448-1-1V43h-2v16c0,1.654,1.346,3,3,3h25c1.654,0,3-1.346,3-3V5C60,3.346,58.654,2,57,2z"/><path d="M35.788,43.915c0.363,0,0.654-0.099,0.851-0.195C37.504,43.297,38,42.273,38,40.911V20c0-1.654-1.346-3-3-3H7   c-1.654,0-3,1.346-3,3v16c0,1.654,1.346,3,3,3h20.699l6.459,4.278C34.785,43.766,35.341,43.915,35.788,43.915z M28,37H7   c-0.551,0-1-0.448-1-1V20c0-0.552,0.449-1,1-1h28c0.552,0,1,0.448,1,1v20.911c0,0.689-0.198,0.98-0.208,1.003   c-0.002,0-0.136-0.004-0.467-0.259l-6.772-4.489C28.389,37.058,28.196,37,28,37z"/><rect height="2" width="6" x="26" y="23"/><rect height="2" width="11" x="10" y="27"/><rect height="2" width="9" x="23" y="27"/><rect height="2" width="7" x="10" y="31"/><rect height="2" width="13" x="19" y="31"/><rect height="2" width="14" x="10" y="23"/><rect height="2" width="2" x="44" y="27"/><rect height="2" width="2" x="40" y="27"/><rect height="2" width="4" x="48" y="27"/></g></svg>