<?xml version="1.0" ?><svg id="icons" style="enable-background:new 0 0 64 64;" version="1.1" viewBox="0 0 64 64" xml:space="preserve" xmlns="http://www.w3.org/2000/svg" xmlns:xlink="http://www.w3.org/1999/xlink"><g><path d="M26,11v12h2V12h19v36H27v2h21c0.553,0,1-0.448,1-1V11c0-0.552-0.447-1-1-1H27C26.447,10,26,10.448,26,11z"/><rect height="2" width="4" x="35" y="6"/><path d="M34,55c0,1.654,1.346,3,3,3s3-1.346,3-3s-1.346-3-3-3S34,53.346,34,55z M38,55c0,0.551-0.448,1-1,1s-1-0.449-1-1   s0.448-1,1-1S38,54.449,38,55z"/><path d="M50,2H25c-1.654,0-3,1.346-3,3v18h2V5c0-0.551,0.448-1,1-1h25c0.552,0,1,0.449,1,1v54c0,0.551-0.448,1-1,1H25   c-0.552,0-1-0.449-1-1V49h-2v10c0,1.654,1.346,3,3,3h25c1.654,0,3-1.346,3-3V5C53,3.346,51.654,2,50,2z"/><rect height="2" width="2" x="37" y="27"/><rect height="2" width="2" x="33" y="27"/><rect height="2" width="4" x="41" y="27"/><path d="M34,36c0-6.065-4.935-11-11-11s-11,4.935-11,11s4.935,11,11,11S34,42.065,34,36z M14,36c0-4.962,4.037-9,9-9s9,4.038,9,9   s-4.037,9-9,9S14,40.962,14,36z"/><path d="M24,43v-2h1c1.654,0,3-1.346,3-3s-1.346-3-3-3h-3c-0.552,0-1-0.449-1-1s0.448-1,1-1h6v-2h-4v-2h-2v2c-1.654,0-3,1.346-3,3   s1.346,3,3,3h3c0.552,0,1,0.449,1,1s-0.448,1-1,1h-6v2h3v2H24z"/></g></svg>