<?xml version="1.0" ?><!DOCTYPE svg  PUBLIC '-//W3C//DTD SVG 1.1//EN'  'http://www.w3.org/Graphics/SVG/1.1/DTD/svg11.dtd'><svg height="45.7px" id="Layer_1" style="enable-background:new 0 0 45.7 45.7;" version="1.1" viewBox="0 0 45.7 45.7" width="45.7px" xml:space="preserve" xmlns="http://www.w3.org/2000/svg" xmlns:xlink="http://www.w3.org/1999/xlink"><path d="M23.4,45.7h-1.1c-6-0.1-11.3-2.4-15.6-6.7c-0.3-0.3-0.6-0.6-0.9-0.9c-0.2-0.2-0.3-0.6-0.2-0.9c0-0.1,0-0.1,0-0.2  c-0.4,0.1-0.8-0.1-1-0.4c-3-3.8-4.6-8.3-4.7-13.3l0-1.1c0.1-4.2,1.2-8.1,3.4-11.5c0.9-1.4,2-2.8,3.2-4c0-0.1,0.1-0.1,0.1-0.2  c0.3-0.3,0.7-0.7,1.1-1c0.3-0.2,0.6-0.3,1-0.2l0.3,0.1c3.3,1.2,6.4,3.5,9.5,6.8c0.4,0.4,0.3,1,0,1.4c-6.1,5.9-9.9,11.9-11.4,17.7  c-0.3,1.1-0.5,2.1-0.6,3.2c2.4-5.6,6.8-11,13.1-16.1c0.8-0.7,1.6-1.4,2.6-2.1c0.3-0.3,0.8-0.3,1.2,0c0.9,0.6,1.7,1.3,2.6,2  c0.1,0.1,0.2,0.1,0.2,0.2c6.2,5.1,10.6,10.4,12.9,16c-0.1-1.1-0.3-2.2-0.6-3.1c-1.5-5.8-5.4-11.8-11.5-17.7c-0.4-0.4-0.4-1-0.1-1.4  c3.1-3.4,6.3-5.7,9.5-6.8l0.4-0.1c0.3-0.1,0.7,0,1,0.2L38,5.7c0.4,0.3,0.7,0.6,1,1c1.3,1.3,2.4,2.7,3.3,4.2  c2.1,3.4,3.2,7.2,3.4,11.4v1.1c-0.1,5-1.7,9.5-4.6,13.2C40.9,37,40.4,37.1,40,37c0,0,0,0,0,0c0,0.1,0,0.1,0.1,0.2  c0.1,0.3,0,0.7-0.2,0.9c-0.3,0.3-0.6,0.6-0.9,0.9C34.7,43.3,29.5,45.6,23.4,45.7C23.4,45.7,23.4,45.7,23.4,45.7z M7.7,37.2  c0.1,0.1,0.3,0.3,0.4,0.4c4,4,8.6,6,14.2,6.2h1.1c5.6-0.1,10.2-2.1,14.2-6.1c0.1-0.1,0.3-0.3,0.4-0.4c0-0.1,0-0.1,0-0.1  c0-0.1-0.1-0.2-0.1-0.3c0-0.1-0.1-0.2-0.1-0.4c-0.1-0.2-0.1-0.3-0.2-0.5c0-0.1-0.1-0.2-0.1-0.3c-2.2-5.3-6.4-10.5-12.5-15.5  c0,0-0.1,0-0.1-0.1c-0.7-0.5-1.3-1-1.9-1.5c-0.7,0.5-1.3,1-1.9,1.5c-6.6,5.3-11,10.9-13,16.7c0,0,0,0.1-0.1,0.1  C7.8,37,7.8,37.1,7.7,37.2L7.7,37.2z M8.3,8c0,0.1-0.1,0.1-0.1,0.2C7,9.3,5.9,10.5,5.1,11.9C3.1,15,2.1,18.5,2,22.3v1.1  c0.1,3.7,1,6.9,2.8,9.9C4.9,32.5,5,31.8,5.2,31c1.5-5.9,5.3-12,11.3-17.9c-2.6-2.7-5.2-4.5-7.8-5.5C8.6,7.7,8.4,7.8,8.3,8z M29.2,13  c6,6,9.8,12,11.3,18c0.2,0.7,0.3,1.5,0.5,2.2c1.7-2.9,2.6-6.2,2.7-9.9l0-1.1c-0.1-3.8-1.1-7.3-3.1-10.4c-0.8-1.3-1.9-2.6-3-3.8  c-0.2-0.2-0.4-0.4-0.6-0.6C34.4,8.5,31.8,10.4,29.2,13z M22.9,10.2c-0.2,0-0.4-0.1-0.6-0.2C17.8,6.4,13.9,5,10.6,5.9  c-0.5,0.1-1-0.1-1.2-0.5c-0.2-0.4-0.1-1,0.3-1.2c3.6-2.6,7.9-4,12.5-4.1h1.1c4.7,0.1,8.9,1.5,12.5,4.1c0.4,0.3,0.5,0.8,0.3,1.2  c-0.2,0.4-0.7,0.7-1.2,0.5C31.8,5,27.9,6.4,23.5,9.9C23.3,10.1,23.1,10.2,22.9,10.2z M14.3,3.8c2.6,0.4,5.5,1.8,8.5,4.1  c3-2.3,5.9-3.7,8.5-4.1c-2.5-1.1-5.1-1.7-8-1.8h-1.1C19.5,2.1,16.8,2.7,14.3,3.8z"/></svg>