<svg id="Слой_1" xmlns="http://www.w3.org/2000/svg" viewBox="0 0 76.4 51.4"><style>.st0{fill:#d6946b}</style><path class="st0" d="M57 37.1c0 2.6-2.1 4.8-4.8 4.8-2.6 0-4.8-2.1-4.8-4.8-1.2-12.7-1.2-10.2 0-22.9 0-2.6 2.1-4.8 4.8-4.8 2.6 0 4.8 2.1 4.8 4.8 1.3 12.7 1.3 10.3 0 22.9m-18 0c0 2.6-2.1 4.8-4.8 4.8s-4.8-2.1-4.8-4.8c-1.2-12.7-1.2-10.2 0-22.9 0-2.6 2.1-4.8 4.8-4.8s4.8 2.1 4.8 4.8c1.3 12.7 1.3 10.3 0 22.9m-18 0c0 2.6-2.1 4.8-4.8 4.8-2.6 0-4.8-2.1-4.8-4.8-1.2-12.7-1.2-10.2 0-22.9 0-2.6 2.1-4.8 4.8-4.8 2.6 0 4.8 2.1 4.8 4.8 1.3 12.7 1.3 10.3 0 22.9M75.6 20c-.4-1.2-1.3-2.2-2.6-2.6-1.1-.3-2.2-.6-3.2-.8-.3-2-.8-3.9-1.3-5.9C67.6 7.5 65 5 61.8 4 44.2-1.4 26.5-1.4 8.9 4c-3.2 1-5.8 3.5-6.7 6.7-2.9 10.1-2.8 20.4-.1 30.9 1 3.7 4 6.4 7.7 7.1 17 3.4 34 3.4 51 0 3.7-.7 6.8-3.5 7.7-7.1.6-2.3 1-4.5 1.4-6.8.9-.1 1.8-.2 2.7-.4 1.4-.3 2.6-1.3 2.9-2.7 1.2-3.9 1.2-7.9.1-11.7"/></svg>