<svg id="Слой_1" xmlns="http://www.w3.org/2000/svg" viewBox="-261 384.9 72 72"><style>.st0{fill:#fff}</style><path class="st0" d="M-203.2 384.9h-43.6c-7.9 0-14.2 6.3-14.2 14.2v43.7c0 7.8 6.3 14.1 14.2 14.1h43.7c7.8 0 14.1-6.3 14.1-14.2v-43.6c0-7.9-6.3-14.2-14.2-14.2zm9.4 58c0 5.1-4.1 9.2-9.2 9.2h-44c-5 0-9.2-4.2-9.2-9.2v-44c0-5 4.2-9.2 9.2-9.2h44c5.1 0 9.2 4.1 9.2 9.2v44zm-19.1-29l-7 7 7 7c1.8 1.8 2 4.3.6 5.7s-4 1.1-5.7-.6l-7-7-7 7c-1.8 1.8-4.3 2-5.7.6-1.4-1.4-1.1-4 .6-5.7l7-7-7-7c-1.8-1.8-2-4.3-.6-5.7 1.4-1.4 4-1.1 5.7.6l7 7 7-7c1.8-1.8 4.3-2 5.7-.6s1.1 3.9-.6 5.7z"/></svg>