<svg id="Слой_1" xmlns="http://www.w3.org/2000/svg" viewBox="-261 384.9 72 72"><style>.st0{fill:#fff}</style><path class="st0" d="M-246.8 451.9c-5.1 0-9.2-4.1-9.2-9.2v-43.6c0-5.1 4.1-9.2 9.2-9.2h43.7c5.1 0 9.2 4.1 9.2 9.2v43.7c0 5.1-4.1 9.2-9.2 9.2l-43.7-.1m0 5h43.7c7.8 0 14.1-6.3 14.1-14.2v-43.6c0-7.9-6.3-14.2-14.2-14.2h-43.6c-7.9 0-14.2 6.3-14.2 14.2v43.7c0 7.8 6.3 14.1 14.2 14.1zm27.2-57l-23.2 19.9 23 21.3c1.6 1.5 4.2 1.4 5.7-.2 1.5-1.6 1.4-4.2-.2-5.7l-16.4-15.2 16.3-14.1c1.7-1.4 1.9-4 .4-5.6-.8-.9-1.9-1.4-3-1.4-.9 0-1.9.3-2.6 1z"/></svg>