<svg version="1" xmlns="http://www.w3.org/2000/svg" width="87.333" height="29.573" viewBox="0 0 87.333 29.573"><path d="M5.248 16.889c-.238 0-.545-.014-.924-.039a14.85 14.85 0 0 0-.935-.039c-.26 0-.602.014-1.024.039a18.41 18.41 0 0 1-1.024.039v-.145c.334-.164.598-.398.791-.703.096-.148.171-.343.223-.584.052-.242.078-.507.078-.797l.078-9.628c0-.134-.024-.286-.072-.457s-.127-.337-.231-.501a2.841 2.841 0 0 0-.245-.34 1.612 1.612 0 0 0-.234-.239V3.35c.297.037.564.063.802.078.237.015.497.022.779.022.223 0 .417-.003.584-.011.168-.007.463-.037.886-.089v.145a1.456 1.456 0 0 0-.223.228 2.114 2.114 0 0 0-.234.335 1.95 1.95 0 0 0-.161.445c-.048.19-.073.366-.073.53l.078 9.628c0 .253.048.529.145.831.097.301.178.5.245.596.148.186.252.309.312.367.104.105.23.201.378.291v.143zM20.78 9.802c0 2.333-.85 4.134-2.55 5.405-1.5 1.122-3.403 1.682-5.712 1.682h-1.136c-.342 0-.839-.021-1.492-.066s-1.11-.066-1.37-.066c-.438 0-.824.008-1.158.027a29.11 29.11 0 0 0-1.281.105v-.156c.178-.074.329-.158.451-.25a1.9 1.9 0 0 0 .362-.373c.148-.193.256-.457.323-.791.045-.223.067-.419.067-.59V5.298c0-.156-.019-.33-.056-.523-.066-.319-.172-.567-.314-.746a3.065 3.065 0 0 0-.321-.334 1.177 1.177 0 0 0-.277-.2V3.35h6.959c2.25 0 4.072.613 5.467 1.839 1.359 1.196 2.038 2.734 2.038 4.613zm-2.16.268c0-1.791-.301-3.172-.903-4.146-.535-.861-1.356-1.463-2.463-1.805-.87-.268-2.062-.401-3.579-.401H8.866l.323 10.944c0 .728.23 1.211.69 1.449.379.193 1.132.289 2.261.289 2.189 0 3.782-.428 4.776-1.281 1.136-.982 1.704-2.664 1.704-5.049zm16.891 3.913l-.891 2.906h-7.827c-.282 0-.65-.014-1.103-.039s-.82-.039-1.103-.039c-.334 0-.768.014-1.303.039-.534.025-.968.039-1.303.039v-.145c.201-.074.366-.158.496-.252.13-.091.258-.224.384-.394.126-.141.211-.408.256-.803.045-.394.067-.758.067-1.092V4.976c0-.104-.033-.247-.1-.429a2.712 2.712 0 0 0-.256-.518 1.878 1.878 0 0 0-.212-.278 2.952 2.952 0 0 0-.267-.256V3.35h11.157l.757 2.305-.223-.022-.2-.201a4.475 4.475 0 0 0-1.002-.779c-.141-.082-.486-.234-1.036-.457-.296-.126-.764-.217-1.402-.273a35.573 35.573 0 0 0-2.36-.111c-.936-.019-1.878-.028-2.829-.028h-.334V9.44h4.253c.564 0 .965-.015 1.203-.044.408-.052.746-.167 1.013-.345.401-.274.705-.631.913-1.069h.178c0 .295-.004.509-.011.642a95.73 95.73 0 0 0-.056 1.029c0 .295.004.509.011.641.037.649.056.984.056 1.006h-.178a4.204 4.204 0 0 0-.423-.557 3.098 3.098 0 0 0-.69-.501c-.215-.119-.473-.204-.774-.256s-.714-.078-1.242-.078h-4.208l.145 4.726c0 .841.234 1.367.702 1.576.267.119.935.178 2.004.178 2.101 0 3.756-.201 4.966-.604 1.128-.373 1.982-.961 2.561-1.767l.211-.034zm13.249-1.569c0 1.47-.588 2.605-1.765 3.408-1.177.8-2.771 1.201-4.782 1.201-.973 0-1.997-.141-3.073-.422a14.761 14.761 0 0 1-2.394-.857l-.368-.179.779-2.227.134.111.044.178c.26 1.047 1.024 1.841 2.294 2.384a8.059 8.059 0 0 0 3.195.634c1.054 0 1.982-.234 2.784-.703.98-.571 1.47-1.373 1.47-2.404 0-.675-.23-1.206-.69-1.592-.364-.304-.924-.549-1.681-.735-.69-.134-1.377-.267-2.06-.401l-.568-.111c-.883-.17-1.611-.364-2.182-.579-.765-.29-1.344-.646-1.737-1.069-.468-.497-.702-1.113-.702-1.848 0-1.381.608-2.42 1.826-3.118.972-.557 2.201-.835 3.686-.835.779 0 1.7.122 2.761.367.95.223 1.722.468 2.316.735l.278.134-.646 2.049-.167-.089-.045-.189c-.193-.876-.805-1.548-1.837-2.016-.809-.371-1.696-.557-2.661-.557-1.18 0-2.123.215-2.828.646-.765.467-1.147 1.125-1.147 1.971 0 .675.211 1.221.635 1.637.349.341.879.62 1.592.835.378.111 1.061.267 2.048.468l.435.089 1.514.256c.972.223 1.748.52 2.327.891.811.519 1.215 1.165 1.215 1.937zm5.122 4.475c-.238 0-.545-.014-.924-.039a14.85 14.85 0 0 0-.935-.039c-.26 0-.602.014-1.024.039a18.41 18.41 0 0 1-1.024.039v-.145c.334-.164.598-.398.791-.703.096-.148.171-.343.223-.584.052-.242.078-.507.078-.797l.078-9.628a1.901 1.901 0 0 0-.3-.958 2.763 2.763 0 0 0-.245-.34 1.562 1.562 0 0 0-.234-.239V3.35c.297.037.564.063.802.078.237.015.497.022.779.022.223 0 .417-.003.584-.011.167-.007.462-.037.885-.089v.145a1.456 1.456 0 0 0-.223.228 2.155 2.155 0 0 0-.234.334c-.06.108-.113.256-.161.446a2.164 2.164 0 0 0-.073.529l.078 9.628c0 .253.048.529.145.831.097.301.178.5.245.596.148.186.252.309.312.367.104.105.23.201.378.291v.144zM69.76 9.986l-.033.145a1.32 1.32 0 0 0-.824.401 1.214 1.214 0 0 0-.323.518 2.646 2.646 0 0 0-.077.707l.111 3.497-.223.156c-.653.452-1.133.764-1.438.936a6.699 6.699 0 0 1-1.658.65c-.586.145-1.299.217-2.138.217-1.403 0-2.72-.252-3.953-.756-1.343-.55-2.405-1.329-3.185-2.338-.868-1.121-1.303-2.45-1.303-3.986 0-1.997.702-3.667 2.104-5.01 1.47-1.411 3.374-2.116 5.712-2.116.898 0 1.925.15 3.079.451 1.153.301 1.965.611 2.433.93l.356.245-.568 1.96-.155-.045-.156-.289a5.074 5.074 0 0 0-.902-1.191 5.574 5.574 0 0 0-1.681-1.158 6.247 6.247 0 0 0-2.561-.523c-1.826 0-3.233.635-4.22 1.904-.913 1.173-1.37 2.721-1.37 4.643 0 2.012.524 3.63 1.572 4.854 1.129 1.321 2.701 1.981 4.715 1.981 1.382 0 2.33-.252 2.843-.755.542-.535.813-1.544.813-3.029v-.58c0-.616-.085-1.058-.255-1.325-.26-.408-.772-.679-1.537-.812l-.49-.089-.111-.278a34.57 34.57 0 0 0 3.318.167c.312 0 .694-.013 1.146-.039.454-.03.774-.043.959-.043zm15.755-6.491c-.097.06-.189.115-.278.167-.126.082-.278.242-.456.479-.179.208-.317.508-.418.902s-.15.835-.15 1.325v10.799h-.267c-.46-.525-.868-.998-1.224-1.413l-1.091-1.27c-.444-.504-.86-.969-1.245-1.392a671.773 671.773 0 0 1-3.304-3.619 632.65 632.65 0 0 1-3.015-3.329c-.445-.453-.891-.91-1.335-1.37l.168 9.076c0 .476.066.958.2 1.448.111.401.212.661.301.78.126.162.264.293.412.388.148.098.341.186.579.268l.011.145c-.208 0-.479-.01-.812-.033a13.72 13.72 0 0 0-.812-.033c-.245 0-.564.012-.958.033a16.92 16.92 0 0 1-.958.033v-.145c.171-.082.323-.172.457-.273.134-.099.276-.234.429-.406.152-.17.284-.541.396-1.113.089-.46.133-.828.133-1.102V5.165c0-.208-.063-.427-.192-.657a2.274 2.274 0 0 0-.308-.417c-.113-.123-.232-.245-.357-.367s-.21-.199-.256-.229V3.35c.223.022.472.037.746.044s.557.011.847.011h.312a7.174 7.174 0 0 0 .946-.055l.857 1.102c.171.216.995 1.121 2.472 2.717a428.93 428.93 0 0 0 4.131 4.41l2.183 2.205-.059-7.406c0-.252-.06-.608-.178-1.069-.141-.541-.292-.909-.451-1.101a3.392 3.392 0 0 0-.385-.412 2.263 2.263 0 0 0-.445-.301V3.35c.535.052 1.14.078 1.815.078.482 0 .998-.026 1.548-.078l.011.145zM17.944 25.766c0 .549-.219.972-.658 1.271s-1.033.448-1.782.448a4.57 4.57 0 0 1-1.146-.157 5.524 5.524 0 0 1-.893-.319l-.137-.066.291-.83.05.041.017.066c.097.391.382.687.855.889.368.157.765.236 1.191.236.393 0 .739-.087 1.038-.262.365-.213.548-.512.548-.896 0-.252-.086-.449-.257-.594-.136-.113-.344-.205-.626-.273l-.768-.15-.211-.041a4.898 4.898 0 0 1-.813-.217c-.285-.107-.501-.24-.647-.398a.964.964 0 0 1-.262-.688c0-.516.227-.902.681-1.162.363-.207.82-.312 1.374-.312.291 0 .633.047 1.029.139.354.082.642.174.863.273l.104.049-.241.764-.062-.033-.017-.07c-.072-.326-.3-.576-.685-.75a2.342 2.342 0 0 0-.992-.209c-.44 0-.792.08-1.054.242-.285.174-.428.418-.428.734 0 .252.079.455.237.609.13.127.328.23.593.311.141.043.396.1.764.176l.162.033c.359.061.548.092.564.094.362.084.651.195.867.332.3.192.451.433.451.72zm11.686-2.403h-.075c-.075-.154-.257-.316-.548-.482a2.073 2.073 0 0 0-1.042-.299c-.18 0-.314.016-.403.043-.141.043-.211.123-.211.24v3.739c0 .13.014.235.043.315a.798.798 0 0 0 .301.367.922.922 0 0 0 .216.094v.054a8.26 8.26 0 0 1-.415-.015 8.328 8.328 0 0 0-.975 0c-.205.01-.324.015-.357.015v-.054a.664.664 0 0 0 .213-.092.99.99 0 0 0 .185-.17.576.576 0 0 0 .105-.227 1.18 1.18 0 0 0 .036-.297V22.85c0-.092-.06-.16-.179-.203a1.207 1.207 0 0 0-.411-.064c-.404 0-.783.104-1.137.309-.274.156-.453.314-.536.473h-.108l.303-.975h4.727l.268.973zm11.715-.922a.739.739 0 0 0-.166.123.887.887 0 0 0-.141.16.915.915 0 0 0-.112.373 2.39 2.39 0 0 0-.013.264l-.058 2.303c0 .512-.166.942-.498 1.294-.371.393-.874.589-1.51.589-.764 0-1.36-.146-1.789-.436a1.577 1.577 0 0 1-.635-.833 1.698 1.698 0 0 1-.079-.528v-2.81c0-.059-.003-.109-.01-.154a.356.356 0 0 0-.051-.131.648.648 0 0 0-.114-.131.355.355 0 0 0-.111-.082v-.053l.305.016a5.976 5.976 0 0 0 .636 0l.307-.016v.053a.369.369 0 0 0-.07.051c-.036.035-.079.09-.129.166a.67.67 0 0 0-.083.186.685.685 0 0 0-.033.17l.029 2.633c0 .556.167.984.502 1.286.327.293.78.44 1.361.44.515 0 .924-.141 1.229-.42.224-.204.384-.479.481-.825.058-.208.087-.399.087-.573l-.012-2.143c0-.152-.019-.295-.056-.432a.782.782 0 0 0-.28-.431.824.824 0 0 0-.166-.107v-.053c.086.004.181.01.287.012.105.002.205.004.299.004s.194-.002.301-.004.204-.008.292-.012v.051zm11.931 2.352c0 .869-.317 1.541-.95 2.015-.559.418-1.269.627-2.129.627h-.423a9.17 9.17 0 0 1-.556-.024 8.49 8.49 0 0 0-.511-.025 7.783 7.783 0 0 0-.909.05v-.058a.69.69 0 0 0 .303-.233.698.698 0 0 0 .121-.295c.017-.083.025-.156.025-.22v-3.517c0-.057-.007-.123-.021-.193a.65.65 0 0 0-.238-.404.533.533 0 0 0-.103-.074v-.053h2.594c.838 0 1.518.229 2.038.684.506.447.759 1.019.759 1.72zm-.805.1c0-.668-.112-1.184-.336-1.545-.199-.322-.505-.547-.918-.674-.324-.1-.769-.148-1.334-.148h-1.047l.12 4.079c0 .271.086.451.257.54.141.071.422.107.843.107.816 0 1.41-.159 1.78-.478.424-.365.635-.993.635-1.881zm8.852 2.542c-.088 0-.203-.005-.344-.015a5.01 5.01 0 0 0-.731 0 6.32 6.32 0 0 1-.382.015v-.054a.699.699 0 0 0 .294-.262.649.649 0 0 0 .083-.218c.02-.09.029-.189.029-.297l.029-3.589a.717.717 0 0 0-.112-.358 1.046 1.046 0 0 0-.178-.217v-.053c.111.014.21.023.299.027a4.311 4.311 0 0 0 .509.006c.062-.004.172-.016.33-.033v.053a.579.579 0 0 0-.083.086.734.734 0 0 0-.087.126.719.719 0 0 0-.06.166.789.789 0 0 0-.027.197l.029 3.589c0 .094.018.197.054.31a.999.999 0 0 0 .091.222c.056.069.094.115.116.137a.727.727 0 0 0 .141.108v.054zm12.007-2.486c0 .738-.267 1.36-.799 1.865-.533.505-1.19.757-1.974.757a2.9 2.9 0 0 1-2.009-.763c-.581-.523-.872-1.16-.872-1.91 0-.752.274-1.379.822-1.879.548-.502 1.231-.752 2.05-.752.794 0 1.456.258 1.986.773.53.517.796 1.153.796 1.909zm-.764.057c0-.746-.161-1.355-.481-1.826-.362-.531-.877-.797-1.544-.797-.7 0-1.235.262-1.606.785-.318.451-.478 1.031-.478 1.738 0 .709.159 1.289.478 1.74.371.522.909.784 1.614.784.709 0 1.235-.25 1.581-.751.29-.42.436-.978.436-1.673z" fill="#F4F4F4"/></svg>