<svg id="Слой_1" xmlns="http://www.w3.org/2000/svg" viewBox="0 0 72 72"><style>.st0{fill:#fff}</style><path class="st0" d="M57.8 0H14.2C6.3 0 0 6.3 0 14.2v43.7C0 65.7 6.3 72 14.2 72h43.7C65.7 72 72 65.7 72 57.8V14.2C72 6.3 65.7 0 57.8 0zM67 57.8c0 5.1-4.1 9.2-9.2 9.2H14.2C9.1 67 5 62.9 5 57.8V14.2C5 9.1 9.1 5 14.2 5h43.7c5.1 0 9.2 4.1 9.2 9.2v43.6zM23 21.6c0-2 1.5-3.6 3.3-3.6h19.5c1.8 0 3.3 1.6 3.3 3.6s-1.5 3.6-3.3 3.6H26.3c-1.8 0-3.3-1.6-3.3-3.6zM54 36c0 2-2 3.6-4.5 3.6h-27C20 39.6 18 38 18 36s2-3.6 4.5-3.6h27C52 32.4 54 34 54 36zm-5 14.4c0 2-1.5 3.6-3.3 3.6H26.3c-1.8 0-3.3-1.6-3.3-3.6s1.5-3.6 3.3-3.6h19.5c1.7 0 3.2 1.6 3.2 3.6z"/></svg>